# xmcd
#
# Track frame offsets: 
#        150
#        16932
#        33716
#        56654
#        73972
#        93350
#        113936
#        132275
#        147944
#        167153
#
# Disc length: 2464 seconds
#
# Revision: 0
# Processed by: cddbd v1.5.2PL0 Copyright (c) Steve Scherf et al.
# Submitted via: ExactAudioCopy v0.95b3
#
DISCID=91099e0a
DTITLE=The Boogiemen - A Little Trim
DYEAR=2004
DGENRE=Blues
TTITLE0=Blues On My Radio
TTITLE1=Put Down That Gun
TTITLE2=Last Train Smoking
TTITLE3=Nosy Neighbors
TTITLE4=Project Car
TTITLE5=My Love Is Solid
TTITLE6=The Devils Been Knocking
TTITLE7=Sweet Freshness
TTITLE8=The Other Team
TTITLE9=Johnnys Jump
EXTD=
EXTT0=
EXTT1=
EXTT2=
EXTT3=
EXTT4=
EXTT5=
EXTT6=
EXTT7=
EXTT8=
EXTT9=
PLAYORDER=
